<svg width="32" height="32" viewBox="0 0 32 32" fill="none" xmlns="http://www.w3.org/2000/svg">
<g clip-path="url(#clip0_647_120)">
<mask id="mask0_647_120" style="mask-type:alpha" maskUnits="userSpaceOnUse" x="0" y="0" width="32" height="32">
<path d="M32 0H0V32H32V0Z" fill="#D9D9D9"/>
</mask>
<g mask="url(#mask0_647_120)">
<path d="M7.79935 22.7993C8.93268 21.9327 10.1993 21.2493 11.5993 20.7493C12.9993 20.2493 14.466 19.9993 15.9993 19.9993C17.5327 19.9993 18.9993 20.2493 20.3993 20.7493C21.7993 21.2493 23.066 21.9327 24.1993 22.7993C24.9771 21.8882 25.5827 20.8549 26.016 19.6993C26.4493 18.5438 26.666 17.3104 26.666 15.9993C26.666 13.0438 25.6271 10.5271 23.5493 8.44936C21.4715 6.37158 18.9549 5.33269 15.9993 5.33269C13.0438 5.33269 10.5271 6.37158 8.44935 8.44936C6.37157 10.5271 5.33268 13.0438 5.33268 15.9993C5.33268 17.3104 5.54935 18.5438 5.98268 19.6993C6.41602 20.8549 7.02157 21.8882 7.79935 22.7993ZM15.9993 17.3327C14.6882 17.3327 13.5827 16.8827 12.6827 15.9827C11.7827 15.0827 11.3327 13.9771 11.3327 12.666C11.3327 11.3549 11.7827 10.2493 12.6827 9.34936C13.5827 8.44936 14.6882 7.99936 15.9993 7.99936C17.3104 7.99936 18.416 8.44936 19.316 9.34936C20.216 10.2493 20.666 11.3549 20.666 12.666C20.666 13.9771 20.216 15.0827 19.316 15.9827C18.416 16.8827 17.3104 17.3327 15.9993 17.3327ZM15.9993 29.3327C14.1549 29.3327 12.4215 28.9827 10.7993 28.2827C9.17713 27.5827 7.76602 26.6327 6.56602 25.4327C5.36602 24.2327 4.41602 22.8215 3.71602 21.1993C3.01602 19.5771 2.66602 17.8438 2.66602 15.9993C2.66602 14.1549 3.01602 12.4215 3.71602 10.7993C4.41602 9.17712 5.36602 7.76602 6.56602 6.56602C7.76602 5.36602 9.17713 4.41602 10.7993 3.71602C12.4215 3.01602 14.1549 2.66602 15.9993 2.66602C17.8438 2.66602 19.5771 3.01602 21.1993 3.71602C22.8215 4.41602 24.2327 5.36602 25.4327 6.56602C26.6327 7.76602 27.5827 9.17712 28.2827 10.7993C28.9826 12.4215 29.3327 14.1549 29.3327 15.9993C29.3327 17.8438 28.9826 19.5771 28.2827 21.1993C27.5827 22.8215 26.6327 24.2327 25.4327 25.4327C24.2327 26.6327 22.8215 27.5827 21.1993 28.2827C19.5771 28.9827 17.8438 29.3327 15.9993 29.3327Z" fill="#0084FF"/>
</g>
</g>
<defs>
<clipPath id="clip0_647_120">
<rect width="32" height="32" fill="white"/>
</clipPath>
</defs>
</svg>
