<svg width="24" height="24" viewBox="0 0 24 24" fill="none" xmlns="http://www.w3.org/2000/svg">
<g clip-path="url(#clip0_602_2)">
<mask id="mask0_602_2" style="mask-type:alpha" maskUnits="userSpaceOnUse" x="0" y="0" width="24" height="24">
<path d="M0 0H24V24H0V0Z" fill="white"/>
</mask>
<g mask="url(#mask0_602_2)">
<path d="M7.81795 13.004H18.993C19.2763 13.004 19.5138 12.9082 19.7055 12.7165C19.8972 12.5248 19.993 12.2874 19.993 12.004C19.993 11.7207 19.8972 11.4832 19.7055 11.2915C19.5138 11.0999 19.2763 11.004 18.993 11.004H7.81795L12.718 6.10401C12.918 5.90402 13.0138 5.67068 13.0055 5.40401C12.9972 5.13735 12.893 4.90402 12.693 4.70402C12.493 4.52068 12.2596 4.42485 11.993 4.41652C11.7263 4.40818 11.493 4.50401 11.293 4.70402L4.69297 11.304C4.59296 11.404 4.52213 11.5124 4.48046 11.629C4.4388 11.7457 4.41797 11.8707 4.41797 12.004C4.41797 12.1374 4.4388 12.2624 4.48046 12.379C4.52213 12.4957 4.59296 12.6041 4.69297 12.704L11.293 19.304C11.4763 19.4874 11.7055 19.579 11.9805 19.579C12.2555 19.579 12.493 19.4874 12.693 19.304C12.893 19.104 12.993 18.8666 12.993 18.5915C12.993 18.3165 12.893 18.0791 12.693 17.879L7.81795 13.004Z" fill="#A09FA5"/>
</g>
</g>
<defs>
<clipPath id="clip0_602_2">
<rect width="24" height="24" fill="white"/>
</clipPath>
</defs>
</svg>
