<svg width="36" height="36" viewBox="0 0 36 36" fill="none" xmlns="http://www.w3.org/2000/svg">
<g clip-path="url(#clip0_648_140)">
<mask id="mask0_648_140" style="mask-type:alpha" maskUnits="userSpaceOnUse" x="0" y="0" width="36" height="36">
<path d="M36 0H0V36H36V0Z" fill="#D9D9D9"/>
</mask>
<g mask="url(#mask0_648_140)">
<path d="M5.90156 10.5629C5.42281 10.5629 5.01868 10.3983 4.68918 10.069C4.35993 9.73977 4.19531 9.33564 4.19531 8.85664C4.19531 8.37789 4.35993 7.97389 4.68918 7.64464C5.01868 7.31514 5.42281 7.15039 5.90156 7.15039H30.0988C30.5775 7.15039 30.9816 7.31514 31.3111 7.64464C31.6404 7.97389 31.805 8.37789 31.805 8.85664C31.805 9.33564 31.6404 9.73977 31.3111 10.069C30.9816 10.3983 30.5775 10.5629 30.0988 10.5629H5.90156ZM5.90156 28.8501C5.42281 28.8501 5.01868 28.6854 4.68918 28.3559C4.35993 28.0266 4.19531 27.6226 4.19531 27.1439C4.19531 26.6649 4.35993 26.2608 4.68918 25.9315C5.01868 25.6023 5.42281 25.4376 5.90156 25.4376H30.0988C30.5775 25.4376 30.9816 25.6023 31.3111 25.9315C31.6404 26.2608 31.805 26.6649 31.805 27.1439C31.805 27.6226 31.6404 28.0266 31.3111 28.3559C30.9816 28.6854 30.5775 28.8501 30.0988 28.8501H5.90156ZM5.90156 19.7065C5.42281 19.7065 5.01868 19.5419 4.68918 19.2126C4.35993 18.8831 4.19531 18.479 4.19531 18.0003C4.19531 17.5215 4.35993 17.1174 4.68918 16.7879C5.01868 16.4586 5.42281 16.294 5.90156 16.294H30.0988C30.5775 16.294 30.9816 16.4586 31.3111 16.7879C31.6404 17.1174 31.805 17.5215 31.805 18.0003C31.805 18.479 31.6404 18.8831 31.3111 19.2126C30.9816 19.5419 30.5775 19.7065 30.0988 19.7065H5.90156Z" fill="#0084FF"/>
</g>
</g>
<defs>
<clipPath id="clip0_648_140">
<rect width="36" height="36" fill="white"/>
</clipPath>
</defs>
</svg>
