<svg width="320" height="320" viewBox="0 0 320 320" fill="none" xmlns="http://www.w3.org/2000/svg">
<rect width="320" height="320" rx="64" fill="#CCE4FF"/>
<path d="M238 86.0547C244.627 86.0548 250 91.4274 250 98.0547V221.945C250 228.573 244.627 233.945 238 233.945H235.131C228.503 233.945 223.131 228.573 223.131 221.945V112.632C223.13 112.281 222.846 111.997 222.495 111.997C222.374 111.997 222.256 112.032 222.154 112.097L203.433 124.011C196.596 128.363 187.647 123.451 187.647 115.346C187.647 111.857 189.418 108.607 192.348 106.716L221.39 87.9727C223.33 86.7209 225.589 86.0547 227.897 86.0547H238ZM50.4969 98.7686C50.6799 97.421 52.1485 96.7588 53.3143 97.459C57.8703 100.196 68.1082 106.493 76.0272 112.437C81.0152 116.181 82.5135 123.866 82.5242 123.921C82.584 123.851 90.1705 114.938 94.8133 112.437C105.523 106.667 123.101 100.203 130.92 97.4336C132.508 96.8713 133.962 98.3927 133.292 99.9385C130.43 106.535 124.08 119.46 117.297 122.033C108.105 125.52 94.8133 127.568 94.8133 139.217C94.8133 150.866 120.407 174.223 142.232 174.223C164.476 174.223 188.477 174.333 202.927 174.322C209.732 174.318 215.377 179.881 215.377 186.687V222.915C215.377 228.983 210.822 233.793 204.754 233.83C188.838 233.926 161.046 233.547 156.766 233.547C151.07 233.547 124.492 233.547 96.9129 209.165C69.3339 184.783 71.3328 148.014 71.3328 140.416C71.3328 132.56 71.0904 132.704 58.1424 125.228C48.7325 119.794 49.6617 104.918 50.4969 98.7686ZM190.845 197.97C187.313 197.97 184.449 200.833 184.449 204.365C184.449 207.897 187.313 210.761 190.845 210.761C194.376 210.76 197.239 207.897 197.239 204.365C197.239 200.833 194.376 197.97 190.845 197.97Z" fill="url(#paint0_linear_623_42)"/>
<defs>
<linearGradient id="paint0_linear_623_42" x1="223.806" y1="86.0547" x2="117.727" y2="202.418" gradientUnits="userSpaceOnUse">
<stop stop-color="#DC3AC7"/>
<stop offset="1" stop-color="#0084FF"/>
</linearGradient>
</defs>
</svg>
