<svg width="20" height="20" viewBox="0 0 20 20" fill="none" xmlns="http://www.w3.org/2000/svg">
<g clip-path="url(#clip0_648_168)">
<mask id="mask0_648_168" style="mask-type:alpha" maskUnits="userSpaceOnUse" x="0" y="0" width="20" height="20">
<path d="M20 0H0V20H20V0Z" fill="#D9D9D9"/>
</mask>
<g mask="url(#mask0_648_168)">
<path d="M9.99675 13.3359C11.0384 13.3359 11.9239 12.9714 12.653 12.2422C13.3822 11.513 13.7468 10.6276 13.7468 9.58594C13.7468 8.54427 13.3822 7.65885 12.653 6.92969C11.9239 6.20052 11.0384 5.83594 9.99675 5.83594C8.95508 5.83594 8.06967 6.20052 7.3405 6.92969C6.61133 7.65885 6.24675 8.54427 6.24675 9.58594C6.24675 10.6276 6.61133 11.513 7.3405 12.2422C8.06967 12.9714 8.95508 13.3359 9.99675 13.3359ZM9.99675 11.8359C9.37175 11.8359 8.8405 11.6172 8.403 11.1797C7.9655 10.7422 7.74675 10.2109 7.74675 9.58594C7.74675 8.96094 7.9655 8.42969 8.403 7.99219C8.8405 7.55469 9.37175 7.33594 9.99675 7.33594C10.6218 7.33594 11.153 7.55469 11.5905 7.99219C12.028 8.42969 12.2468 8.96094 12.2468 9.58594C12.2468 10.2109 12.028 10.7422 11.5905 11.1797C11.153 11.6172 10.6218 11.8359 9.99675 11.8359ZM9.99675 15.8359C7.96897 15.8359 6.12175 15.27 4.45508 14.138C2.78841 13.0061 1.58008 11.4887 0.830078 9.58594C1.58008 7.68316 2.78841 6.1658 4.45508 5.03385C6.12175 3.90191 7.96897 3.33594 9.99675 3.33594C12.0245 3.33594 13.8718 3.90191 15.5384 5.03385C17.2051 6.1658 18.4134 7.68316 19.1634 9.58594C18.4134 11.4887 17.2051 13.0061 15.5384 14.138C13.8718 15.27 12.0245 15.8359 9.99675 15.8359ZM9.99675 14.1693C11.5662 14.1693 13.0072 13.7561 14.3197 12.9297C15.6322 12.1033 16.6357 10.9887 17.3301 9.58594C16.6357 8.18316 15.6322 7.06858 14.3197 6.24219C13.0072 5.4158 11.5662 5.0026 9.99675 5.0026C8.4273 5.0026 6.98633 5.4158 5.67383 6.24219C4.36133 7.06858 3.35786 8.18316 2.66342 9.58594C3.35786 10.9887 4.36133 12.1033 5.67383 12.9297C6.98633 13.7561 8.4273 14.1693 9.99675 14.1693Z" fill="#C1C3D0"/>
</g>
</g>
<defs>
<clipPath id="clip0_648_168">
<rect width="20" height="20" fill="white"/>
</clipPath>
</defs>
</svg>
